# xmcd
#
# Track frame offsets:
#	182
#	15452
#	28137
#	42840
#	58522
#	79840
#	96060
#	109892
#	126187
#	139762
#
# Disc length: 2108 seconds
#
# Revision: 4
# Processed by: cddbd v1.5.1PL0 Copyright (c) Steve Scherf et al.
# Submitted via: EasyCDDAExtractor 7.0.5.1
#
DISCID=7e083a0a
DTITLE=Trisha Yearwood - Thinkin' About You
DYEAR=1994
DGENRE=Country
TTITLE0=Thinkin' About You
TTITLE1=Xxx's And Ooo's (An American Girl)
TTITLE2=You Can Sleep While I Drive
TTITLE3=The Restless Kind
TTITLE4=On a Bus To St. Cloud
TTITLE5=Fairytale
TTITLE6=Those Words We Said
TTITLE7=O Mexico
TTITLE8=I Wanna Go Too Far
TTITLE9=Till I Get it Right
EXTD=
EXTT0=
EXTT1=
EXTT2=
EXTT3=
EXTT4=
EXTT5=
EXTT6=
EXTT7=
EXTT8=
EXTT9=
PLAYORDER=
